<svg width="21" height="21" viewBox="0 0 21 21" fill="none" xmlns="http://www.w3.org/2000/svg">
<path d="M7.875 20.0002V12.6002C7.875 12.0402 7.875 11.7601 7.98399 11.5462C8.07987 11.3581 8.23285 11.2051 8.42101 11.1092C8.63492 11.0002 8.91495 11.0002 9.475 11.0002H12.275C12.8351 11.0002 13.1151 11.0002 13.329 11.1092C13.5172 11.2051 13.6701 11.3581 13.766 11.5462C13.875 11.7601 13.875 12.0402 13.875 12.6002V20.0002M9.8927 1.76424L3.11039 7.03937C2.65702 7.39199 2.43034 7.5683 2.26703 7.7891C2.12237 7.98469 2.0146 8.20503 1.94903 8.4393C1.875 8.70376 1.875 8.99094 1.875 9.5653V16.8002C1.875 17.9203 1.875 18.4804 2.09299 18.9082C2.28473 19.2845 2.59069 19.5905 2.96702 19.7822C3.39484 20.0002 3.95489 20.0002 5.075 20.0002H16.675C17.7951 20.0002 18.3552 20.0002 18.783 19.7822C19.1593 19.5905 19.4653 19.2845 19.657 18.9082C19.875 18.4804 19.875 17.9203 19.875 16.8002V9.5653C19.875 8.99094 19.875 8.70376 19.801 8.4393C19.7354 8.20503 19.6276 7.98469 19.483 7.7891C19.3197 7.5683 19.093 7.39199 18.6396 7.03937L11.8573 1.76424C11.506 1.49099 11.3303 1.35436 11.1363 1.30184C10.9652 1.2555 10.7848 1.2555 10.6137 1.30184C10.4197 1.35436 10.244 1.49099 9.8927 1.76424Z" stroke="#363636" stroke-width="2" stroke-linecap="round" stroke-linejoin="round"/>
</svg>
